<svg version="1.1" id="Layer_1" xmlns="http://www.w3.org/2000/svg" xmlns:xlink="http://www.w3.org/1999/xlink" x="0px" y="0px"
	 width="100%" viewBox="0 0 880 800" enable-background="new 0 0 880 800" xml:space="preserve">
<path fill="#000000" opacity="1.000000" stroke="none"
	d="
M551.995728,712.051636
	C528.265198,725.928467 505.201111,740.280457 481.302094,753.072632
	C460.272980,764.328613 438.330292,764.286255 417.351898,752.097717
	C380.650726,730.773865 344.153351,709.099182 307.575562,687.563049
	C279.029510,670.755737 250.492966,653.932312 221.948196,637.122742
	C208.183640,629.017090 194.156570,621.323669 180.702164,612.732849
	C162.478348,601.096558 150.874313,584.650879 146.906754,563.062439
	C145.871536,557.429565 145.739197,551.837158 145.735565,546.178650
	C145.707016,501.685333 146.075684,457.186340 145.479416,412.700409
	C144.952332,373.375641 144.768326,334.049683 145.210403,294.736969
	C145.516754,267.495026 157.530548,245.444687 180.560974,230.639893
	C209.405899,212.097351 239.577164,195.728271 269.231720,178.514999
	C291.682129,165.483459 313.930328,152.103729 336.374908,139.062012
	C364.279938,122.847443 392.089264,106.449799 420.335510,90.847389
	C438.519653,80.803017 457.856873,80.427170 476.462097,89.723267
	C498.799774,100.884300 519.991455,114.181221 541.603394,126.686127
	C568.396790,142.189148 594.946045,158.105621 621.853088,173.422150
	C653.671753,191.534576 685.105835,210.323135 716.687744,228.850815
	C734.920532,239.547134 747.055420,255.091904 752.459290,275.500946
	C754.009338,281.354736 755.225342,287.399841 755.216736,293.675049
	C755.098389,379.828522 755.282654,465.982697 754.986145,552.135315
	C754.940063,565.530212 750.596252,578.041199 743.560425,589.798279
	C734.474548,604.980774 720.282837,613.678101 705.749023,622.191956
	C689.092834,631.949036 672.368286,641.589172 655.683044,651.296692
	C635.404480,663.094788 615.117859,674.879211 594.869507,686.728882
	C580.649292,695.050781 566.487244,703.471924 551.995728,712.051636
M284.204407,223.742477
	C271.289795,231.331390 258.272491,238.752136 245.490158,246.557617
	C233.288177,254.008682 220.180023,260.024261 208.939606,268.993927
	C197.991898,277.729980 191.183533,289.073242 191.149826,303.257751
	C190.963654,381.577057 191.040039,459.897034 191.088654,538.216797
	C191.097641,552.694153 196.857269,564.625732 207.802643,574.062561
	C211.910736,577.604431 213.344101,577.235291 215.135727,572.090881
	C222.179199,551.866760 231.821854,532.960632 244.057495,515.401733
	C265.296082,484.923096 292.120697,460.669617 325.336945,443.866455
	C339.125977,436.890930 353.516876,431.337891 368.227234,426.341583
	C387.893250,419.662109 408.113647,415.949005 428.394714,412.512329
	C444.439758,409.793396 460.740082,408.640503 477.016998,407.566254
	C484.505859,407.071991 492.088593,407.775665 499.450012,406.552368
	C514.356873,404.075165 529.406677,402.761658 544.300171,400.011078
	C564.880371,396.210266 584.725342,390.659973 603.655823,381.688293
	C627.458679,370.407471 645.791748,353.408600 658.297119,330.234497
	C668.747314,310.868866 672.647705,289.630768 675.580811,268.150970
	C676.293091,262.934540 673.528625,260.159546 668.886292,258.674225
	C668.411743,259.241974 667.960449,259.569397 667.814209,260.000305
	C667.495972,260.938019 667.221680,261.917450 667.124146,262.899200
	C665.999878,274.213318 663.182007,285.059998 659.569397,295.872559
	C650.070007,324.304871 631.960083,345.788269 607.078796,361.597656
	C578.869690,379.521515 546.788940,385.892609 514.308350,389.924805
	C495.034027,392.317596 475.542206,393.008057 456.135925,394.275665
	C433.541779,395.751495 411.278381,399.087921 389.119965,403.875885
	C369.329834,408.152100 350.275726,414.201416 331.769653,422.285980
	C305.490784,433.766235 282.453888,449.950806 262.538849,470.441376
	C250.096481,483.243439 239.411743,497.528229 230.447266,513.024841
	C229.532990,514.605225 228.497238,515.974304 226.576828,515.320190
	C224.458496,514.598694 224.971085,512.835815 225.361130,511.116852
	C226.620682,505.565948 229.245087,500.495270 230.943710,495.126862
	C237.749390,473.617798 247.296844,453.367737 258.371674,433.786530
	C275.551361,403.411407 298.119263,378.045868 327.850250,359.414368
	C348.113861,346.715790 369.891388,337.393555 392.670593,330.174255
	C408.705597,325.092377 425.198792,321.964355 441.552704,318.404633
	C459.872314,314.416962 478.308716,311.233368 496.380310,305.919067
	C522.330933,298.287750 547.672729,289.685455 570.255554,274.269867
	C586.095947,263.456818 598.483887,250.162109 604.197144,231.359161
	C606.851746,222.622589 606.206665,218.561783 600.291565,214.925781
	C591.074829,209.260330 581.877136,203.555252 572.518188,198.131302
	C538.526733,178.431717 504.969940,157.983673 470.509613,139.089371
	C456.294525,131.295349 442.314636,131.135071 428.309814,139.298599
	C421.118835,143.490280 414.046204,147.884781 406.860443,152.085663
	C366.193298,175.860275 325.508118,199.604019 284.204407,223.742477
M296.139130,584.693726
	C293.894470,591.843079 292.414093,599.178589 291.221619,606.551697
	C290.506927,610.970642 290.222198,615.493958 290.171539,619.975220
	C290.125000,624.090698 293.453705,625.892273 296.716736,626.407837
	C300.796661,627.052490 299.566010,623.208679 299.967560,621.076599
	C303.933594,600.016541 310.479980,579.863342 321.068848,561.155884
	C330.554108,544.398254 342.073822,529.259705 356.551636,516.402161
	C372.082367,502.609467 389.689697,492.509460 409.235931,485.672974
	C411.137848,485.007751 413.391327,484.152740 414.556763,486.486450
	C415.709717,488.795166 413.666046,489.935486 412.055359,491.218079
	C407.242157,495.050781 402.312592,498.781433 397.837860,502.987427
	C380.755920,519.043335 369.399994,538.744019 361.051117,560.494629
	C350.930847,586.859985 346.875244,613.810791 352.351990,641.696838
	C354.900452,654.672791 359.259216,666.923096 373.338165,672.241821
	C374.254181,672.587830 375.022186,673.310669 375.886536,673.810791
	C395.187531,684.976929 414.316803,696.456543 433.862579,707.176697
	C445.497559,713.557983 457.982147,712.672058 469.290436,706.335144
	C491.921539,693.653259 514.161438,680.270264 536.502258,667.074219
	C558.279358,654.211304 579.954529,641.175903 601.722046,628.296631
	C630.495361,611.272156 659.241211,594.199097 688.147400,577.402527
	C701.527649,569.627625 707.388184,557.578857 708.826477,542.955078
	C709.590881,535.182983 709.617065,527.316895 709.607971,519.493713
	C709.559937,478.179047 709.396423,436.864532 709.262329,395.550018
	C709.257629,394.106415 709.558411,392.489899 707.518555,391.646698
	C706.677917,392.313507 705.707336,392.939087 704.909912,393.737549
	C692.488525,406.174713 677.417664,414.713043 661.864075,422.345306
	C633.894531,436.070160 603.826660,442.738556 573.133545,445.878784
	C553.665955,447.870544 534.079895,449.282928 514.397156,449.438995
	C496.677704,449.579529 478.911346,450.322327 461.262299,453.633057
	C451.316986,455.498688 441.106262,456.547882 431.495026,459.599396
	C404.980286,468.017700 380.336151,480.206696 358.317047,497.528320
	C339.629242,512.229309 324.594727,529.992432 312.086823,550.070984
	C305.445984,560.731201 300.672241,572.221558 296.139130,584.693726
z"/>
</svg>
