<svg width="256" height="292" viewBox="0 0 256 292" fill="none" xmlns="http://www.w3.org/2000/svg">
<path d="M136.289 292C109.622 292 86.2891 287.6 66.2891 278.8C46.2891 270 30.5557 257.467 19.0891 241.2C7.6224 224.667 1.35573 205.467 0.289063 183.6H63.8891C65.2224 195.333 68.6891 205.467 74.2891 214C79.8891 222.267 87.6224 228.667 97.4891 233.2C107.356 237.733 118.822 240 131.889 240C151.089 240 165.889 236.4 176.289 229.2C186.956 221.733 192.289 211.333 192.289 198C192.289 188.133 189.089 180 182.689 173.6C176.289 166.933 167.089 161.333 155.089 156.8C143.089 152.267 127.356 148 107.889 144H107.489C86.4224 139.467 68.9557 134.267 55.0891 128.4C41.4891 122.533 30.8224 115.067 23.0891 106C15.6224 96.9333 11.8891 86 11.8891 73.2C11.8891 58.5333 16.6891 45.7333 26.2891 34.8C36.1557 23.6 49.4891 15.0667 66.2891 9.19999C83.0891 3.06665 102.156 -1.33514e-05 123.489 -1.33514e-05C149.622 -1.33514e-05 172.289 4.26665 191.489 12.8C210.956 21.3333 226.156 33.4667 237.089 49.2C248.022 64.9333 254.156 83.7333 255.489 105.6H189.089C187.489 89.0667 181.089 76.1333 169.889 66.8C158.689 57.4667 143.889 52.8 125.489 52.8C114.022 52.8 104.022 54.5333 95.4891 58C86.9557 61.2 80.4224 66 75.8891 72.4C71.3557 78.5333 69.0891 86 69.0891 94.8C69.0891 104.667 72.4224 112.667 79.0891 118.8C85.7557 124.933 96.0224 130.4 109.889 135.2C124.022 140 144.289 145.333 170.689 151.2C171.756 151.467 172.689 151.733 173.489 152C174.556 152 175.622 152.133 176.689 152.4C177.222 152.667 177.756 152.8 178.289 152.8C178.822 152.8 179.356 152.933 179.889 153.2C195.356 156.933 208.422 161.333 219.089 166.4C229.756 171.2 238.156 177.733 244.289 186C250.422 194.267 253.489 204.667 253.489 217.2C253.489 231.867 248.556 244.933 238.689 256.4C229.089 267.6 215.356 276.4 197.489 282.8C179.622 288.933 159.222 292 136.289 292Z" fill="url(#paint0_linear_26_105)"/>
<defs>
<linearGradient id="paint0_linear_26_105" x1="17.8427" y1="121.5" x2="208.182" y2="236.728" gradientUnits="userSpaceOnUse">
<stop stop-color="#002B45"/>
<stop offset="1" stop-color="#488AB5"/>
</linearGradient>
</defs>
</svg>
